<svg xmlns="http://www.w3.org/2000/svg" width="176" height="64" viewBox="0 0 176 64">
    <g fill="none" fill-rule="evenodd">
        <path fill="#FFF" d="M-1152-72H288v768h-1440z"/>
        <g fill-rule="nonzero">
            <g fill="#00FF97">
                <path d="M47.754.786h5.82v17.242h-5.82zM59.353.786h5.82v17.242h-5.82zM24.274 23.755h5.82v17.242h-5.82zM35.873 23.755h5.82v17.242h-5.82zM.821 46.758h5.82V64H.821zM12.426 46.758h5.82V64h-5.82zM9.5 18.814c-5.235 0-9.5-4.223-9.5-9.41C0 4.216 4.265 0 9.5 0 14.734 0 19 4.222 19 9.404c.033 5.187-4.232 9.41-9.5 9.41zm0-13.6c-2.315 0-4.232 1.872-4.232 4.19 0 2.29 1.89 4.189 4.232 4.189 2.314 0 4.231-1.872 4.231-4.19 0-2.317-1.883-4.188-4.231-4.188zM56.46 41.81c-5.241 0-9.5-4.222-9.5-9.404 0-5.181 4.266-9.403 9.5-9.403s9.5 4.222 9.5 9.403c0 5.182-4.26 9.404-9.5 9.404zm0-13.593c-2.314 0-4.232 1.872-4.232 4.19 0 2.29 1.89 4.188 4.232 4.188 2.314 0 4.232-1.871 4.232-4.189a4.24 4.24 0 0 0-4.232-4.189zM47.754 58.239h17.418V64H47.754zM47.754 46.758h17.418v5.761H47.754zM.821 35.243h17.418v5.761H.821zM.821 23.755h17.418v5.761H.821z"/>
            </g>
            <g fill="#222">
                <path d="M94.173 22.411v6.528h-5.906v-6.528h-5.228v18.675h5.228v-7.12h5.906v7.12h5.202V22.41zM119.906 26.854v-4.443h-13.561v18.675h13.561v-4.472h-8.477v-2.777h8.477V29.4h-8.477v-2.547zM141.267 22.411h-16.192v4.797h5.521v13.878h5.176V27.208h5.495zM147.056 22.44h5.201v18.675h-5.201zM170.805 33.808c-.62 1.666-2.01 2.647-3.72 2.647-2.336 0-4.079-1.76-4.079-4.667s1.743-4.667 4.08-4.667c1.742 0 3.132.981 3.72 2.676h5.168c-.829-4.573-4.464-7.768-8.922-7.768-5.084 0-9.156 4.147-9.156 9.76 0 5.611 4.046 9.759 9.156 9.759 4.464 0 8.067-3.203 8.922-7.769l-5.169.029z"/>
            </g>
        </g>
    </g>
</svg>
